<svg xmlns="http://www.w3.org/2000/svg" xmlns:xlink="http://www.w3.org/1999/xlink" viewBox="0,0,256,256" width="60px" height="60px" fill-rule="nonzero"><g fill="#6c7983" fill-rule="nonzero" stroke="none" stroke-width="1" stroke-linecap="butt" stroke-linejoin="miter" stroke-miterlimit="10" stroke-dasharray="" stroke-dashoffset="0" font-family="none" font-weight="none" font-size="none" text-anchor="none" style="mix-blend-mode: normal"><g transform="scale(5.12,5.12)"><path d="M25.00195,1c-0.101,0 -23,7.13672 -23,7.13672v31.33594c0,0 0.24128,0.095 0.61328,0.25c0,0 22.26772,9.2793 22.38672,9.2793c0.119,0 22.38672,-9.2793 22.38672,-9.2793c0.372,-0.155 0.61328,-0.26172 0.61328,-0.26172v-31.32813c0,0 -22.899,-7.13281 -23,-7.13281zM25.00195,3.04883l18.6582,5.85156l-9.03125,2.83203l-9.62695,3.01953l-9.62891,-3.01953l-9.0293,-2.83203zM4.00195,10.26172l20,6.27148v29.96484l-20,-8.36328zM46.00195,10.26172v27.87305l-20,8.36328v-29.96484zM43.52734,15.80078l-2.10352,0.72461l-1.9043,14.4707l-2.37305,-12.99414l-1.85742,0.64063l-2.47266,14.9668l-2.04102,-13.41016l-2.30078,0.79297l3.07227,17.80859l2.18359,-0.89453l2.5,-14.57812l2.40625,12.56836l2.06836,-0.84766zM12.54492,18.09961c-0.15842,-0.00247 -0.31459,0.00378 -0.46484,0.01953c-0.598,0.062 -1.1072,0.25241 -1.5332,0.56641c-0.425,0.314 -0.75528,0.7413 -0.98828,1.2793c-0.233,0.537 -0.34766,1.16653 -0.34766,1.89453c0,0.736 0.11098,1.42727 0.33398,2.07227c0.224,0.645 0.53369,1.25413 0.92969,1.82813c0.398,0.575 0.87474,1.12253 1.42774,1.64453c0.556,0.523 1.16417,1.02958 1.82617,1.51758c0.607,0.452 1.10514,0.8588 1.49414,1.2168c0.389,0.358 0.69497,0.69848 0.91797,1.02148c0.223,0.323 0.37889,0.6458 0.46289,0.9668c0.084,0.321 0.125,0.66802 0.125,1.04102c0,0.744 -0.21644,1.26759 -0.64844,1.55859c-0.429,0.296 -1.07001,0.29037 -1.91602,-0.01562c-0.428,-0.154 -0.82536,-0.36124 -1.19336,-0.61523c-0.368,-0.254 -0.68608,-0.55992 -0.95508,-0.91992c-0.267,-0.359 -0.47686,-0.77128 -0.63086,-1.23828c-0.154,-0.467 -0.23047,-0.98655 -0.23047,-1.56055l-2.36328,-0.83203c0,0.958 0.15394,1.84702 0.46094,2.66602c0.307,0.822 0.7118,1.56361 1.2168,2.22461c0.507,0.664 1.08161,1.23203 1.72461,1.70703c0.645,0.476 1.30266,0.84089 1.97266,1.08789c0.756,0.279 1.44541,0.41706 2.06641,0.41406c0.623,-0.003 1.1547,-0.14001 1.5957,-0.41602c0.443,-0.276 0.78344,-0.68366 1.02344,-1.22266c0.241,-0.539 0.36133,-1.20233 0.36133,-1.98633c0,-0.742 -0.09616,-1.44061 -0.28516,-2.09961c-0.191,-0.657 -0.48109,-1.29048 -0.87109,-1.89648c-0.39,-0.604 -0.87789,-1.19167 -1.46289,-1.76367c-0.583,-0.569 -1.27055,-1.13998 -2.06055,-1.70898c-1.003,-0.723 -1.74452,-1.38895 -2.22851,-2.00195c-0.483,-0.61 -0.72461,-1.25273 -0.72461,-1.92773c0,-0.359 0.04948,-0.67517 0.14648,-0.95117c0.097,-0.277 0.25008,-0.4953 0.45508,-0.6543c0.204,-0.16 0.46148,-0.25134 0.77148,-0.27734c0.311,-0.026 0.68238,0.02902 1.10938,0.16602c0.455,0.145 0.84664,0.34647 1.18164,0.60547c0.335,0.259 0.61398,0.5593 0.83398,0.9043c0.22,0.346 0.38323,0.72572 0.49023,1.13672c0.108,0.411 0.16211,0.84106 0.16211,1.28906l2.47266,0.8125c0,-0.776 -0.11652,-1.54464 -0.35352,-2.30664c-0.237,-0.762 -0.57753,-1.47186 -1.01953,-2.13086c-0.441,-0.656 -0.97923,-1.23537 -1.61523,-1.73437c-0.634,-0.498 -1.34581,-0.86828 -2.13281,-1.11328c-0.5505,-0.17025 -1.06184,-0.26017 -1.53711,-0.26758z"></path></g></g></svg>